<?xml version="1.0" encoding="UTF-8" standalone="no"?>
<!DOCTYPE svg PUBLIC "-//W3C//DTD SVG 1.1//EN" "http://www.w3.org/Graphics/SVG/1.1/DTD/svg11.dtd">
<svg width="100%" height="100%" viewBox="0 0 62 51" version="1.1" xmlns="http://www.w3.org/2000/svg" xmlns:xlink="http://www.w3.org/1999/xlink" xml:space="preserve" xmlns:serif="http://www.serif.com/" style="fill-rule:evenodd;clip-rule:evenodd;stroke-linejoin:round;stroke-miterlimit:1.41421;">
    <g transform="matrix(1,0,0,1,-16,-22)">
        <path d="M17,33L17,61C17,62.105 17.895,63 19,63L61,63C62.105,63 63,62.105 63,61L63,33L17,33Z" style="fill:rgb(209,237,255);fill-rule:nonzero;"/>
    </g>
    <g transform="matrix(1,0,0,1,-16,-22)">
        <rect x="17" y="59" width="46" height="4" style="fill:rgb(193,231,255);"/>
    </g>
    <g transform="matrix(1,0,0,1,-16,-22)">
        <path d="M19,29L61,29C62.105,29 63,29.895 63,31C63,32.656 61.656,34 60,34L20,34C18.344,34 17,32.656 17,31C17,29.895 17.895,29 19,29Z" style="fill:rgb(216,240,255);fill-rule:nonzero;"/>
    </g>
    <g transform="matrix(1,0,0,1,-16,-22)">
        <path d="M37,43L43,43L43,47C43,48.656 41.656,50 40,50C38.344,50 37,48.656 37,47L37,43Z" style="fill:rgb(157,214,254);fill-rule:nonzero;"/>
    </g>
    <g transform="matrix(1,0,0,1,-16,-22)">
        <path d="M59,58L55,58C54.449,58 54,58.449 54,59C54,59.551 54.449,60 55,60L59,60C59.551,60 60,59.551 60,59C60,58.449 59.551,58 59,58Z" style="fill:rgb(120,139,156);fill-rule:nonzero;"/>
    </g>
    <g transform="matrix(1,0,0,1,-16,-22)">
        <path d="M16,31C16,29.344 17.344,28 19,28L31.461,28L34.57,23.34C35.125,22.504 36.066,22 37.07,22L42.859,22C44,22.088 44.898,22.592 45.353,23.242C45.578,23.564 45.943,24.097 45.941,24.102L48.539,28L61,28C62.656,28 64,29.344 64,31L64,61C64,62.656 62.656,64 61,64L19,64C17.344,64 16,62.656 16,61L16,31ZM18,60L18,61C18,61.551 18.449,62 19,62L61,62C61.551,62 62,61.551 62,61L62,41C61.539,41.363 61.02,41.645 60.461,41.828L44,46.828L44,47C44,49.211 42.211,51 40,51C37.789,51 36,49.211 36,47L36,46.789L19.539,41.789C18.984,41.617 18.465,41.352 18,41L18,58L51,58C51.551,58 52,58.449 52,59C52,59.551 51.551,60 51,60L18,60ZM42,44L42,47C42,48.105 41.105,49 40,49C38.895,49 38,48.105 38,47L38,44L42,44ZM61,30L19,30C18.449,30 18,30.449 18,31L18,37C17.984,38.336 18.852,39.523 20.129,39.91L36,44.738L36,44C36,42.895 36.895,42 38,42L42,42C43.105,42 44,42.895 44,44L44,44.738L59.871,39.871C61.133,39.488 62,38.32 62,37L62,31C62,30.449 61.551,30 61,30ZM42.93,24L37.07,24C36.734,24 36.426,24.172 36.238,24.449L33.871,28L46.129,28L43.762,24.449C43.574,24.172 43.266,24 42.93,24Z" style="fill:rgb(120,139,156);"/>
    </g>
    <g transform="matrix(1.5028,0,0,1.5028,-11.0638,-11.7526)">
        <clipPath id="_clip1">
            <ellipse cx="31.766" cy="25.122" rx="8.867" ry="8.714"/>
        </clipPath>
        <g clip-path="url(#_clip1)">
            <g transform="matrix(1,0,0,1,-16,-22)">
                <path d="M17,33L17,61C17,62.105 17.895,63 19,63L61,63C62.105,63 63,62.105 63,61L63,33L17,33Z" style="fill:rgb(209,237,255);fill-rule:nonzero;"/>
            </g>
            <g transform="matrix(1,0,0,1,-16,-22)">
                <path d="M37,43L43,43L43,47C43,48.656 41.656,50 40,50C38.344,50 37,48.656 37,47L37,43Z" style="fill:rgb(157,214,254);fill-rule:nonzero;"/>
            </g>
            <g transform="matrix(1,0,0,1,-16,-22)">
                <rect x="17" y="59" width="46" height="4" style="fill:rgb(193,231,255);"/>
            </g>
            <g transform="matrix(1,0,0,1,-16,-22)">
                <path d="M19,29L61,29C62.105,29 63,29.895 63,31C63,32.656 61.656,34 60,34L20,34C18.344,34 17,32.656 17,31C17,29.895 17.895,29 19,29Z" style="fill:rgb(216,240,255);fill-rule:nonzero;"/>
            </g>
            <g transform="matrix(1,0,0,1,-16,-22)">
                <path d="M59,58L55,58C54.449,58 54,58.449 54,59C54,59.551 54.449,60 55,60L59,60C59.551,60 60,59.551 60,59C60,58.449 59.551,58 59,58Z" style="fill:rgb(120,139,156);fill-rule:nonzero;"/>
            </g>
            <g transform="matrix(1,0,0,1,-16,-22)">
                <path d="M16,31C16,29.344 17.344,28 19,28L31.461,28L34.57,23.34C35.125,22.504 36.066,22 37.07,22L42.859,22C44,22.088 44.898,22.592 45.353,23.242C45.578,23.564 45.943,24.097 45.941,24.102L48.539,28L61,28C62.656,28 64,29.344 64,31L64,61C64,62.656 62.656,64 61,64L19,64C17.344,64 16,62.656 16,61L16,31ZM18,60L18,61C18,61.551 18.449,62 19,62L61,62C61.551,62 62,61.551 62,61L62,41C61.539,41.363 61.02,41.645 60.461,41.828L44,46.828L44,47C44,49.211 42.211,51 40,51C37.789,51 36,49.211 36,47L36,46.789L19.539,41.789C18.984,41.617 18.465,41.352 18,41L18,58L51,58C51.551,58 52,58.449 52,59C52,59.551 51.551,60 51,60L18,60ZM42,44L42,47C42,48.105 41.105,49 40,49C38.895,49 38,48.105 38,47L38,44L42,44ZM61,30L19,30C18.449,30 18,30.449 18,31L18,37C17.984,38.336 18.852,39.523 20.129,39.91L36,44.738L36,44C36,42.895 36.895,42 38,42L42,42C43.105,42 44,42.895 44,44L44,44.738L59.871,39.871C61.133,39.488 62,38.32 62,37L62,31C62,30.449 61.551,30 61,30ZM42.93,24L37.07,24C36.734,24 36.426,24.172 36.238,24.449L33.871,28L46.129,28L43.762,24.449C43.574,24.172 43.266,24 42.93,24Z" style="fill:rgb(6,38,66);"/>
            </g>
        </g>
    </g>
    <g>
        <g transform="matrix(1,0,0,1,-2.60274,-12.9955)">
            <path d="M50.515,46.479L63.145,58.272C63.703,58.831 64.025,59.606 64.025,60.43C64.025,61.255 63.703,62.027 63.12,62.61C62.538,63.192 61.765,63.512 60.943,63.512C60.118,63.512 59.343,63.191 58.761,62.608L47.103,50.14C48.659,49.342 49.879,48.044 50.515,46.479Z" style="fill:rgb(165,129,101);"/>
        </g>
        <g transform="matrix(1.90363,0,0,1.90363,-13.7717,-20.8695)">
            <circle cx="26.5" cy="24.5" r="7" style="fill:rgb(209,237,255);fill-opacity:0.416157;"/>
        </g>
        <g transform="matrix(1.90363,0,0,1.90363,-13.7717,-20.8695)">
            <path d="M26.5,18C30.084,18 33,20.916 33,24.5C33,28.084 30.084,31 26.5,31C22.916,31 20,28.084 20,24.5C20,20.916 22.916,18 26.5,18M26.5,17C22.358,17 19,20.358 19,24.5C19,28.642 22.358,32 26.5,32C30.642,32 34,28.642 34,24.5C34,20.358 30.642,17 26.5,17Z" style="fill:rgb(90,90,90);fill-rule:nonzero;"/>
        </g>
    </g>
</svg>
