<?xml version="1.0" encoding="UTF-8" standalone="no"?>
<!DOCTYPE svg PUBLIC "-//W3C//DTD SVG 1.1//EN" "http://www.w3.org/Graphics/SVG/1.1/DTD/svg11.dtd">
<svg width="100%" height="100%" viewBox="0 0 64 64" version="1.1" xmlns="http://www.w3.org/2000/svg" xmlns:xlink="http://www.w3.org/1999/xlink" xml:space="preserve" xmlns:serif="http://www.serif.com/" style="fill-rule:evenodd;clip-rule:evenodd;stroke-linejoin:round;stroke-miterlimit:1.41421;">
    <g id="Layer1">
        <g transform="matrix(-1.54167,0,0,1.54167,52.4167,-3.08336)">
            <path d="M6.5,37.5L6.5,2.5L24.793,2.5L33.5,11.207L33.5,37.5L6.5,37.5Z" style="fill:white;fill-rule:nonzero;"/>
        </g>
        <g transform="matrix(-1.54167,0,0,1.54167,52.4167,-3.08336)">
            <path d="M24.586,3L33,11.414L33,37L7,37L7,3L24.586,3M25.133,2.133C25.048,2.048 24.932,2 24.812,2C23.126,2 10.588,2 6.973,2C6.715,2 6.467,2.103 6.285,2.285C6.103,2.467 6,2.715 6,2.973C6,8.722 6,38 6,38C6,38 28.085,38 33.027,38C33.285,38 33.533,37.897 33.715,37.715C33.897,37.533 34,37.285 34,37.027C34,32.696 34,15.229 34,11.645C34,11.232 33.836,10.836 33.544,10.544C31.866,8.866 26.084,3.084 25.133,2.133Z" style="fill:rgb(120,139,156);fill-rule:nonzero;"/>
        </g>
        <g transform="matrix(-1.54167,0,0,1.54167,52.4167,-3.08336)">
            <path d="M24.5,11.5L24.5,2.5L24.793,2.5L33.5,11.207L33.5,11.5L24.5,11.5Z" style="fill:white;fill-rule:nonzero;"/>
        </g>
        <g transform="matrix(-0.0523206,0,0,0.0523206,43.1667,-1.63158e-05)">
            <g transform="matrix(1.38856,0,0,1,-1867.27,-143.834)">
                <rect x="1423.54" y="346.346" width="127.058" height="31.879" style="fill:rgb(235,235,235);"/>
            </g>
            <g transform="matrix(1.38856,0,0,1,-1647.37,-143.834)">
                <rect x="1423.54" y="346.346" width="127.058" height="31.879" style="fill:rgb(235,235,235);"/>
            </g>
            <g transform="matrix(1.38856,0,0,1,-1867.27,-66.3472)">
                <rect x="1423.54" y="346.346" width="127.058" height="31.879" style="fill:rgb(235,235,235);"/>
            </g>
            <g transform="matrix(1.38856,0,0,1,-1647.37,-66.3472)">
                <rect x="1423.54" y="346.346" width="127.058" height="31.879" style="fill:rgb(235,235,235);"/>
            </g>
            <g transform="matrix(1.38856,0,0,1,-1867.27,11.14)">
                <rect x="1423.54" y="346.346" width="127.058" height="31.879" style="fill:rgb(235,235,235);"/>
            </g>
            <g transform="matrix(1.38856,0,0,1,-1647.37,11.14)">
                <rect x="1423.54" y="346.346" width="127.058" height="31.879" style="fill:rgb(235,235,235);"/>
            </g>
            <g transform="matrix(1.38856,0,0,1,-1427.48,11.14)">
                <rect x="1423.54" y="346.346" width="127.058" height="31.879" style="fill:rgb(235,235,235);"/>
            </g>
            <g transform="matrix(1.38856,0,0,1,-1867.27,88.6272)">
                <rect x="1423.54" y="346.346" width="127.058" height="31.879" style="fill:rgb(235,235,235);"/>
            </g>
            <g transform="matrix(1.38856,0,0,1,-1647.37,88.6272)">
                <rect x="1423.54" y="346.346" width="127.058" height="31.879" style="fill:rgb(235,235,235);"/>
            </g>
            <g transform="matrix(1.38856,0,0,1,-1427.48,88.6272)">
                <rect x="1423.54" y="346.346" width="127.058" height="31.879" style="fill:rgb(235,235,235);"/>
            </g>
            <g transform="matrix(1.38856,0,0,1,-1867.27,166.114)">
                <rect x="1423.54" y="346.346" width="127.058" height="31.879" style="fill:rgb(235,235,235);"/>
            </g>
            <g transform="matrix(1.38856,0,0,1,-1647.37,166.114)">
                <rect x="1423.54" y="346.346" width="127.058" height="31.879" style="fill:rgb(235,235,235);"/>
            </g>
            <g transform="matrix(1.38856,0,0,1,-1427.48,166.114)">
                <rect x="1423.54" y="346.346" width="127.058" height="31.879" style="fill:rgb(235,235,235);"/>
            </g>
            <g transform="matrix(1.38856,0,0,1,-1867.27,243.602)">
                <rect x="1423.54" y="346.346" width="127.058" height="31.879" style="fill:rgb(235,235,235);"/>
            </g>
            <g transform="matrix(1.38856,0,0,1,-1647.37,243.602)">
                <rect x="1423.54" y="346.346" width="127.058" height="31.879" style="fill:rgb(235,235,235);"/>
            </g>
            <g transform="matrix(1.38856,0,0,1,-1427.48,243.602)">
                <rect x="1423.54" y="346.346" width="127.058" height="31.879" style="fill:rgb(235,235,235);"/>
            </g>
            <g transform="matrix(1.38856,0,0,1,-1867.27,321.089)">
                <rect x="1423.54" y="346.346" width="127.058" height="31.879" style="fill:rgb(235,235,235);"/>
            </g>
            <g transform="matrix(1.38856,0,0,1,-1647.37,321.089)">
                <rect x="1423.54" y="346.346" width="127.058" height="31.879" style="fill:rgb(235,235,235);"/>
            </g>
            <g transform="matrix(1.38856,0,0,1,-1427.48,321.089)">
                <rect x="1423.54" y="346.346" width="127.058" height="31.879" style="fill:rgb(235,235,235);"/>
            </g>
            <g transform="matrix(1.38856,0,0,1,-1867.27,398.576)">
                <rect x="1423.54" y="346.346" width="127.058" height="31.879" style="fill:rgb(235,235,235);"/>
            </g>
            <g transform="matrix(1.38856,0,0,1,-1647.37,398.576)">
                <rect x="1423.54" y="346.346" width="127.058" height="31.879" style="fill:rgb(235,235,235);"/>
            </g>
            <g transform="matrix(1.38856,0,0,1,-1427.48,398.576)">
                <rect x="1423.54" y="346.346" width="127.058" height="31.879" style="fill:rgb(235,235,235);"/>
            </g>
            <g transform="matrix(1.38856,0,0,1,-1867.27,476.063)">
                <rect x="1423.54" y="346.346" width="127.058" height="31.879" style="fill:rgb(235,235,235);"/>
            </g>
            <g transform="matrix(1.38856,0,0,1,-1647.37,476.063)">
                <rect x="1423.54" y="346.346" width="127.058" height="31.879" style="fill:rgb(235,235,235);"/>
            </g>
            <g transform="matrix(1.38856,0,0,1,-1427.48,476.063)">
                <rect x="1423.54" y="346.346" width="127.058" height="31.879" style="fill:rgb(235,235,235);"/>
            </g>
            <g transform="matrix(1.38856,0,0,1,-1867.27,553.55)">
                <rect x="1423.54" y="346.346" width="127.058" height="31.879" style="fill:rgb(235,235,235);"/>
            </g>
            <g transform="matrix(1.38856,0,0,1,-1647.37,553.55)">
                <rect x="1423.54" y="346.346" width="127.058" height="31.879" style="fill:rgb(235,235,235);"/>
            </g>
            <g transform="matrix(1.38856,0,0,1,-1427.48,553.55)">
                <rect x="1423.54" y="346.346" width="127.058" height="31.879" style="fill:rgb(235,235,235);"/>
            </g>
            <g transform="matrix(1.38856,0,0,1,-1867.27,-221.322)">
                <rect x="1423.54" y="346.346" width="127.058" height="31.879" style="fill:rgb(235,235,235);"/>
            </g>
            <g transform="matrix(1.38856,0,0,1,-1647.37,-221.322)">
                <rect x="1423.54" y="346.346" width="127.058" height="31.879" style="fill:rgb(235,235,235);"/>
            </g>
        </g>
        <g transform="matrix(-1.54167,0,0,1.54167,52.4167,-3.08336)">
            <path d="M25,3.414L32.586,11L25,11L25,3.414M25.095,2.095C25.034,2.034 24.952,2 24.866,2C24.593,2 24,2 24,2C24,2 24,8.514 24,11.027C24,11.564 24.436,12 24.973,12C27.486,12 34,12 34,12C34,12 34,11.638 34,11.349C34,11.126 33.911,10.911 33.753,10.753C32.404,9.404 25.956,2.956 25.095,2.095Z" style="fill:rgb(120,139,156);fill-rule:nonzero;"/>
        </g>
        <path d="M17,33L17,61C17,62.105 17.895,63 19,63L61,63C62.105,63 63,62.105 63,61L63,33L17,33Z" style="fill:rgb(209,237,255);fill-rule:nonzero;"/>
        <rect x="17" y="59" width="46" height="4" style="fill:rgb(193,231,255);fill-rule:nonzero;"/>
        <path d="M19,29L61,29C62.105,29 63,29.895 63,31C63,32.656 61.656,34 60,34L20,34C18.344,34 17,32.656 17,31C17,29.895 17.895,29 19,29Z" style="fill:rgb(216,240,255);fill-rule:nonzero;"/>
        <path d="M37,43L43,43L43,47C43,48.656 41.656,50 40,50C38.344,50 37,48.656 37,47L37,43Z" style="fill:rgb(157,214,254);fill-rule:nonzero;"/>
        <path d="M59,58L55,58C54.449,58 54,58.449 54,59C54,59.551 54.449,60 55,60L59,60C59.551,60 60,59.551 60,59C60,58.449 59.551,58 59,58Z" style="fill:rgb(120,139,156);fill-rule:nonzero;"/>
        <path d="M16,31C16,29.344 17.344,28 19,28L31.461,28L34.57,23.34C35.125,22.504 36.066,22 37.07,22L42.859,22C44,22.088 44.898,22.592 45.353,23.242C45.578,23.564 45.943,24.097 45.941,24.102L48.539,28L61,28C62.656,28 64,29.344 64,31L64,61C64,62.656 62.656,64 61,64L19,64C17.344,64 16,62.656 16,61L16,31ZM18,60L18,61C18,61.551 18.449,62 19,62L61,62C61.551,62 62,61.551 62,61L62,41C61.539,41.363 61.02,41.645 60.461,41.828L44,46.828L44,47C44,49.211 42.211,51 40,51C37.789,51 36,49.211 36,47L36,46.789L19.539,41.789C18.984,41.617 18.465,41.352 18,41L18,58L51,58C51.551,58 52,58.449 52,59C52,59.551 51.551,60 51,60L18,60ZM42,44L42,47C42,48.105 41.105,49 40,49C38.895,49 38,48.105 38,47L38,44L42,44ZM61,30L19,30C18.449,30 18,30.449 18,31L18,37C17.984,38.336 18.852,39.523 20.129,39.91L36,44.738L36,44C36,42.895 36.895,42 38,42L42,42C43.105,42 44,42.895 44,44L44,44.738L59.871,39.871C61.133,39.488 62,38.32 62,37L62,31C62,30.449 61.551,30 61,30ZM42.93,24L37.07,24C36.734,24 36.426,24.172 36.238,24.449L33.871,28L46.129,28L43.762,24.449C43.574,24.172 43.266,24 42.93,24Z" style="fill:rgb(120,139,156);"/>
    </g>
</svg>
