<?xml version="1.0" encoding="UTF-8" standalone="no"?>
<!DOCTYPE svg PUBLIC "-//W3C//DTD SVG 1.1//EN" "http://www.w3.org/Graphics/SVG/1.1/DTD/svg11.dtd">
<svg width="100%" height="100%" viewBox="0 0 988 1061" version="1.1" xmlns="http://www.w3.org/2000/svg" xmlns:xlink="http://www.w3.org/1999/xlink" xml:space="preserve" xmlns:serif="http://www.serif.com/" style="fill-rule:evenodd;clip-rule:evenodd;stroke-linejoin:round;stroke-miterlimit:1.41421;">
    <g transform="matrix(29.4658,0,0,29.4658,-176.795,-58.9317)">
        <path d="M6.5,37.5L6.5,2.5L24.793,2.5L33.5,11.207L33.5,37.5L6.5,37.5Z" style="fill:white;fill-rule:nonzero;"/>
    </g>
    <g transform="matrix(29.4658,0,0,29.4658,-176.795,-58.9317)">
        <path d="M24.586,3L33,11.414L33,37L7,37L7,3L24.586,3M25,2L6,2L6,38L34,38L34,11L25,2Z" style="fill:rgb(120,139,156);fill-rule:nonzero;"/>
    </g>
    <g transform="matrix(29.4658,0,0,29.4658,-176.795,-58.9317)">
        <path d="M24.5,11.5L24.5,2.5L24.793,2.5L33.5,11.207L33.5,11.5L24.5,11.5Z" style="fill:white;fill-rule:nonzero;"/>
    </g>
    <g transform="matrix(29.4658,0,0,29.4658,-176.795,-58.9317)">
        <path d="M34,37L33,36L33,18L34,20L34,37Z" style="fill:rgb(197,212,222);fill-rule:nonzero;"/>
    </g>
    <g transform="matrix(29.4658,0,0,29.4658,-176.795,-58.9317)">
        <path d="M37.881,37.5C37.448,37.5 37.041,37.331 36.735,37.025L26.695,26.287L28.279,24.701L39.038,34.747C39.331,35.041 39.5,35.448 39.5,35.881C39.5,36.314 39.331,36.72 39.025,37.026C38.719,37.332 38.313,37.5 37.881,37.5Z" style="fill:rgb(182,201,214);fill-rule:nonzero;"/>
    </g>
    <g>
        <g transform="matrix(1.38856,0,0,1,-1867.27,-143.834)">
            <rect x="1423.54" y="346.346" width="127.058" height="31.879" style="fill:rgb(235,235,235);"/>
        </g>
        <g transform="matrix(1.38856,0,0,1,-1647.37,-143.834)">
            <rect x="1423.54" y="346.346" width="127.058" height="31.879" style="fill:rgb(235,235,235);"/>
        </g>
        <g transform="matrix(1.38856,0,0,1,-1867.27,-66.3472)">
            <rect x="1423.54" y="346.346" width="127.058" height="31.879" style="fill:rgb(235,235,235);"/>
        </g>
        <g transform="matrix(1.38856,0,0,1,-1647.37,-66.3472)">
            <rect x="1423.54" y="346.346" width="127.058" height="31.879" style="fill:rgb(235,235,235);"/>
        </g>
        <g transform="matrix(1.38856,0,0,1,-1867.27,11.14)">
            <rect x="1423.54" y="346.346" width="127.058" height="31.879" style="fill:rgb(235,235,235);"/>
        </g>
        <g transform="matrix(1.38856,0,0,1,-1647.37,11.14)">
            <rect x="1423.54" y="346.346" width="127.058" height="31.879" style="fill:rgb(235,235,235);"/>
        </g>
        <g transform="matrix(1.38856,0,0,1,-1427.48,11.14)">
            <rect x="1423.54" y="346.346" width="127.058" height="31.879" style="fill:rgb(235,235,235);"/>
        </g>
        <g transform="matrix(1.38856,0,0,1,-1867.27,88.6272)">
            <rect x="1423.54" y="346.346" width="127.058" height="31.879" style="fill:rgb(235,235,235);"/>
        </g>
        <g transform="matrix(1.38856,0,0,1,-1647.37,88.6272)">
            <rect x="1423.54" y="346.346" width="127.058" height="31.879" style="fill:rgb(235,235,235);"/>
        </g>
        <g transform="matrix(1.38856,0,0,1,-1427.48,88.6272)">
            <rect x="1423.54" y="346.346" width="127.058" height="31.879" style="fill:rgb(235,235,235);"/>
        </g>
        <g transform="matrix(1.38856,0,0,1,-1867.27,166.114)">
            <rect x="1423.54" y="346.346" width="127.058" height="31.879" style="fill:rgb(235,235,235);"/>
        </g>
        <g transform="matrix(1.38856,0,0,1,-1647.37,166.114)">
            <rect x="1423.54" y="346.346" width="127.058" height="31.879" style="fill:rgb(235,235,235);"/>
        </g>
        <g transform="matrix(1.38856,0,0,1,-1427.48,166.114)">
            <rect x="1423.54" y="346.346" width="127.058" height="31.879" style="fill:rgb(235,235,235);"/>
        </g>
        <g transform="matrix(1.38856,0,0,1,-1867.27,243.602)">
            <rect x="1423.54" y="346.346" width="127.058" height="31.879" style="fill:rgb(235,235,235);"/>
        </g>
        <g transform="matrix(1.38856,0,0,1,-1647.37,243.602)">
            <rect x="1423.54" y="346.346" width="127.058" height="31.879" style="fill:rgb(235,235,235);"/>
        </g>
        <g transform="matrix(1.38856,0,0,1,-1427.48,243.602)">
            <rect x="1423.54" y="346.346" width="127.058" height="31.879" style="fill:rgb(235,235,235);"/>
        </g>
        <g transform="matrix(1.38856,0,0,1,-1867.27,321.089)">
            <rect x="1423.54" y="346.346" width="127.058" height="31.879" style="fill:rgb(235,235,235);"/>
        </g>
        <g transform="matrix(1.38856,0,0,1,-1647.37,321.089)">
            <rect x="1423.54" y="346.346" width="127.058" height="31.879" style="fill:rgb(235,235,235);"/>
        </g>
        <g transform="matrix(1.38856,0,0,1,-1427.48,321.089)">
            <rect x="1423.54" y="346.346" width="127.058" height="31.879" style="fill:rgb(235,235,235);"/>
        </g>
        <g transform="matrix(1.38856,0,0,1,-1867.27,398.576)">
            <rect x="1423.54" y="346.346" width="127.058" height="31.879" style="fill:rgb(235,235,235);"/>
        </g>
        <g transform="matrix(1.38856,0,0,1,-1647.37,398.576)">
            <rect x="1423.54" y="346.346" width="127.058" height="31.879" style="fill:rgb(235,235,235);"/>
        </g>
        <g transform="matrix(1.38856,0,0,1,-1427.48,398.576)">
            <rect x="1423.54" y="346.346" width="127.058" height="31.879" style="fill:rgb(235,235,235);"/>
        </g>
        <g transform="matrix(1.38856,0,0,1,-1867.27,476.063)">
            <rect x="1423.54" y="346.346" width="127.058" height="31.879" style="fill:rgb(235,235,235);"/>
        </g>
        <g transform="matrix(1.38856,0,0,1,-1647.37,476.063)">
            <rect x="1423.54" y="346.346" width="127.058" height="31.879" style="fill:rgb(235,235,235);"/>
        </g>
        <g transform="matrix(1.38856,0,0,1,-1427.48,476.063)">
            <rect x="1423.54" y="346.346" width="127.058" height="31.879" style="fill:rgb(235,235,235);"/>
        </g>
        <g transform="matrix(1.38856,0,0,1,-1867.27,553.55)">
            <rect x="1423.54" y="346.346" width="127.058" height="31.879" style="fill:rgb(235,235,235);"/>
        </g>
        <g transform="matrix(1.38856,0,0,1,-1647.37,553.55)">
            <rect x="1423.54" y="346.346" width="127.058" height="31.879" style="fill:rgb(235,235,235);"/>
        </g>
        <g transform="matrix(1.38856,0,0,1,-1427.48,553.55)">
            <rect x="1423.54" y="346.346" width="127.058" height="31.879" style="fill:rgb(235,235,235);"/>
        </g>
        <g transform="matrix(1.38856,0,0,1,-1867.27,-221.322)">
            <rect x="1423.54" y="346.346" width="127.058" height="31.879" style="fill:rgb(235,235,235);"/>
        </g>
        <g transform="matrix(1.38856,0,0,1,-1647.37,-221.322)">
            <rect x="1423.54" y="346.346" width="127.058" height="31.879" style="fill:rgb(235,235,235);"/>
        </g>
    </g>
    <g transform="matrix(29.4658,0,0,29.4658,-176.795,-58.9317)">
        <circle cx="26.5" cy="24.5" r="7" style="fill:rgb(209,237,255);"/>
    </g>
    <g transform="matrix(29.4658,0,0,29.4658,-176.795,-58.9317)">
        <path d="M25,3.414L32.586,11L25,11L25,3.414M25,2L24,2L24,12L34,12L34,11L25,2Z" style="fill:rgb(120,139,156);fill-rule:nonzero;"/>
    </g>
    <g transform="matrix(29.4658,0,0,29.4658,-176.795,-58.9317)">
        <path d="M26.5,18C30.084,18 33,20.916 33,24.5C33,28.084 30.084,31 26.5,31C22.916,31 20,28.084 20,24.5C20,20.916 22.916,18 26.5,18M26.5,17C22.358,17 19,20.358 19,24.5C19,28.642 22.358,32 26.5,32C30.642,32 34,28.642 34,24.5C34,20.358 30.642,17 26.5,17Z" style="fill:rgb(120,139,156);fill-rule:nonzero;"/>
    </g>
</svg>
