<?xml version="1.0" encoding="UTF-8" standalone="no"?>
<!DOCTYPE svg PUBLIC "-//W3C//DTD SVG 1.1//EN" "http://www.w3.org/Graphics/SVG/1.1/DTD/svg11.dtd">
<svg width="100%" height="100%" viewBox="0 0 60 54" version="1.1" xmlns="http://www.w3.org/2000/svg" xmlns:xlink="http://www.w3.org/1999/xlink" xml:space="preserve" xmlns:serif="http://www.serif.com/" style="fill-rule:evenodd;clip-rule:evenodd;stroke-linejoin:round;stroke-miterlimit:1.41421;">
    <g transform="matrix(1,0,0,1,-2,-6.62045)">
        <path d="M59,59L5,59C3.895,59 3,58.105 3,57L3,30.512C3,30.176 3.168,29.863 3.449,29.676C3.727,29.492 4.082,29.461 4.391,29.59L10.789,32.289C11.523,32.602 12.371,32.449 12.949,31.898L26.172,19.301C26.684,18.809 27.418,18.625 28.102,18.82L41.488,22.621C42.137,22.801 42.832,22.648 43.34,22.211L59.34,8.41C59.637,8.148 60.063,8.086 60.422,8.254C60.781,8.422 61.008,8.785 61,9.18L61,57C61,58.105 60.105,59 59,59Z" style="fill:rgb(237,120,153);fill-rule:nonzero;"/>
    </g>
    <g transform="matrix(1,0,0,1,-2,-4.62045)">
        <path d="M59,57L5,57C3.895,57 3,56.105 3,55L3,39L22,42.898L34.59,31.32L47.859,36.941L61,31.43L61,55C61,56.105 60.105,57 59,57Z" style="fill:rgb(133,203,248);fill-rule:nonzero;"/>
    </g>
    <g transform="matrix(1,0,0,1,-2,-6.62045)">
        <path d="M7,55L57,55C59.211,55 61,55.789 61,58C61,58.551 60.551,59 60,59L4,59C3.449,59 3,58.551 3,58C3,55.789 4.789,55 7,55Z" style="fill:rgb(123,190,235);fill-rule:nonzero;"/>
    </g>
    <g transform="matrix(1,0,0,1,-2,-6.62045)">
        <path d="M62,31L62,9.18C62,6.828 61.083,5.611 58.691,7.672L42.691,21.461C42.434,21.68 42.082,21.754 41.762,21.66L28.371,17.859C27.348,17.57 26.25,17.84 25.48,18.57L12.262,31.172C11.973,31.445 11.547,31.523 11.18,31.371L4.781,28.672C3.129,27.971 2,28.115 2,30.512L2,57C2,59.534 2.772,60 5,60L59,60C61.545,60 61.888,59.43 61.997,57.145C61.999,57.097 62,57.049 62,57L62,31ZM59,58L5,58C4.449,58 4,57.551 4,57L4,30.512L10.398,33.211C11.5,33.672 12.766,33.441 13.629,32.621L26.859,20C27.125,19.742 27.508,19.648 27.859,19.762L41.25,23.559C42.203,23.84 43.234,23.629 44,23L60,9.18L60,32.352L48,37.641C47.738,37.762 47.434,37.762 47.172,37.641L35.719,32.219C34.563,31.672 33.188,31.914 32.289,32.828L22,43.32C21.762,43.563 21.422,43.668 21.09,43.602L14.449,42.281C13.898,42.172 13.363,42.531 13.254,43.086C13.148,43.637 13.508,44.172 14.059,44.281L20.699,45.602C21.695,45.797 22.723,45.477 23.43,44.75L33.719,34.23C34.02,33.93 34.477,33.848 34.859,34.031L46.27,39.441C47.063,39.801 47.969,39.801 48.762,39.441L60,34.531L60,57C60,57.551 59.551,58 59,58Z" style="fill:rgb(61,61,61);fill-rule:nonzero;"/>
    </g>
    <g transform="matrix(1,0,0,1,-2,-4.62045)">
        <path d="M10.531,39.48L8.23,39C7.676,38.891 7.145,39.254 7.035,39.805C6.926,40.355 7.289,40.891 7.84,41L10.141,41.461L10.34,41.461C10.891,41.512 11.383,41.105 11.434,40.555C11.488,40.004 11.082,39.512 10.531,39.461L10.531,39.48Z" style="fill:rgb(61,61,61);fill-rule:nonzero;"/>
    </g>
</svg>
