<?xml version="1.0" encoding="UTF-8" standalone="no"?>
<!DOCTYPE svg PUBLIC "-//W3C//DTD SVG 1.1//EN" "http://www.w3.org/Graphics/SVG/1.1/DTD/svg11.dtd">
<svg width="100%" height="100%" viewBox="0 0 36 36" version="1.1" xmlns="http://www.w3.org/2000/svg" xmlns:xlink="http://www.w3.org/1999/xlink" xml:space="preserve" xmlns:serif="http://www.serif.com/" style="fill-rule:evenodd;clip-rule:evenodd;stroke-linejoin:round;stroke-miterlimit:1.41421;">
    <g transform="matrix(1,0,0,1,-2,-2)">
        <path d="M15.5,37.5L15.5,24.5L2.5,24.5L2.5,15.5L15.5,15.5L15.5,2.5L24.5,2.5L24.5,15.5L37.5,15.5L37.5,24.5L24.5,24.5L24.5,37.5L15.5,37.5Z" style="fill:rgb(223,240,254);fill-rule:nonzero;"/>
    </g>
    <g transform="matrix(1,0,0,1,-2,-2)">
        <path d="M24,3C24,3 24,11.954 24,15C24,15.552 24.448,16 25,16C27.613,16 34.574,16 36.5,16C36.776,16 37,16.224 37,16.5C37,17.936 37,22.064 37,23.5C37,23.776 36.776,24 36.5,24C34.574,24 27.613,24 25,24C24.448,24 24,24.448 24,25C24,27.613 24,34.574 24,36.5C24,36.776 23.776,37 23.5,37C22.064,37 17.936,37 16.5,37C16.224,37 16,36.776 16,36.5C16,34.574 16,27.613 16,25C16,24.448 15.552,24 15,24C12.387,24 5.426,24 3.5,24C3.224,24 3,23.776 3,23.5C3,22.064 3,17.936 3,16.5C3,16.224 3.224,16 3.5,16C5.426,16 12.387,16 15,16C15.552,16 16,15.552 16,15C16,12.387 16,5.426 16,3.5C16,3.224 16.224,3 16.5,3C18.251,3 24,3 24,3M25,3C25,2.448 24.552,2 24,2C22.084,2 17.916,2 16,2C15.448,2 15,2.448 15,3C15,5.613 15,12.574 15,14.5C15,14.633 14.947,14.76 14.854,14.854C14.76,14.947 14.633,15 14.5,15C12.574,15 5.613,15 3,15C2.448,15 2,15.448 2,16C2,17.916 2,22.084 2,24C2,24.552 2.448,25 3,25C5.613,25 12.574,25 14.5,25C14.633,25 14.76,25.053 14.854,25.146C14.947,25.24 15,25.367 15,25.5C15,27.426 15,34.387 15,37C15,37.552 15.448,38 16,38C17.916,38 22.084,38 24,38C24.552,38 25,37.552 25,37C25,34.387 25,27.426 25,25.5C25,25.367 25.053,25.24 25.146,25.146C25.24,25.053 25.367,25 25.5,25C27.426,25 34.387,25 37,25C37.552,25 38,24.552 38,24C38,22.084 38,17.916 38,16C38,15.448 37.552,15 37,15C34.387,15 27.426,15 25.5,15C25.367,15 25.24,14.947 25.146,14.854C25.053,14.76 25,14.633 25,14.5C25,12.574 25,5.613 25,3Z" style="fill:rgb(71,136,199);fill-rule:nonzero;"/>
    </g>
</svg>
