<svg xmlns="http://www.w3.org/2000/svg" xmlns:xlink="http://www.w3.org/1999/xlink" viewBox="0 0 40 40" version="1.1">
<g id="surface1">
<path style=" fill:#FFFFFF;" d="M 1.5 37.5 L 1.5 15.519531 L 17.980469 4.132813 C 18.578125 3.71875 19.273438 3.503906 20 3.503906 C 20.726563 3.503906 21.421875 3.71875 22.019531 4.132813 L 38.5 15.519531 L 38.5 37.5 Z "></path>
<path style=" fill:#4788C7;" d="M 20 4.003906 C 20.621094 4.003906 21.222656 4.1875 21.734375 4.542969 L 38 15.78125 L 38 37 L 2 37 L 2 15.78125 L 18.265625 4.542969 C 18.777344 4.1875 19.378906 4.003906 20 4.003906 M 20 3.003906 C 19.195313 3.003906 18.390625 3.242188 17.699219 3.71875 L 1 15.257813 L 1 38 L 39 38 L 39 15.257813 L 22.300781 3.71875 C 21.609375 3.242188 20.804688 3.003906 20 3.003906 Z "></path>
<path style=" fill:#DFF0FE;" d="M 20 4.003906 C 19.378906 4.003906 18.777344 4.1875 18.265625 4.542969 L 2 15.78125 L 2 37 L 38 37 L 38 15.78125 L 21.734375 4.542969 C 21.222656 4.1875 20.621094 4.003906 20 4.003906 Z "></path>
<path style=" fill:#98CCFD;" d="M 25 25 L 15 25 L 2 15.78125 L 18.265625 4.542969 C 18.777344 4.1875 19.378906 4.003906 20 4.003906 C 20.621094 4.003906 21.222656 4.1875 21.734375 4.542969 L 38 15.78125 Z "></path>
<path style=" fill:#4788C7;" d="M 24.679688 24 L 15.320313 24 L 2.875 15.175781 L 2 15.78125 L 15 25 L 25 25 L 38 15.78125 L 37.125 15.175781 Z "></path>
</g>
</svg>
